<svg version="1.1" viewBox="0.0 0.0 525.6692913385826 134.6981627296588" fill="none" stroke="none" stroke-linecap="square" stroke-miterlimit="10" xmlns:xlink="http://www.w3.org/1999/xlink" xmlns="http://www.w3.org/2000/svg"><clipPath id="p.0"><path d="m0 0l525.6693 0l0 134.69817l-525.6693 0l0 -134.69817z" clip-rule="nonzero"/></clipPath><g clip-path="url(#p.0)"><path fill="#000000" fill-opacity="0.0" d="m0 0l525.6693 0l0 134.69817l-525.6693 0z" fill-rule="evenodd"/><path fill="#000000" fill-opacity="0.0" d="m0.8759302 -0.96034986l435.65356 0l0 107.81103l-435.65356 0z" fill-rule="evenodd"/><path fill="#4a86e8" d="m80.87593 44.868393q0 4.15625 -1.21875 7.65625q-1.203125 3.484375 -3.890625 6.015625q-2.6875 2.515625 -6.96875 3.9375q-4.28125 1.40625 -10.40625 1.40625l-24.859375 0l0 17.515625l-14.984375 0l0 -55.453125l39.84375 0q6.125 0 10.40625 1.390625q4.28125 1.390625 6.96875 3.921875q2.6875 2.515625 3.890625 5.984375q1.21875 3.46875 1.21875 7.625zm-15.140625 0.25q0 -1.9375 -0.546875 -3.328125q-0.546875 -1.390625 -1.796875 -2.28125q-1.25 -0.890625 -3.265625 -1.3125q-2.015625 -0.421875 -4.96875 -0.421875l-21.625 0l0 14.28125l21.625 0q2.953125 0 4.96875 -0.34375q2.015625 -0.34375 3.265625 -1.171875q1.25 -0.828125 1.796875 -2.15625q0.546875 -1.328125 0.546875 -3.265625zm99.283554 8.59375q0 7.140625 -2.625 12.609375q-2.625 5.46875 -7.515625 9.140625q-4.875 3.671875 -11.84375 5.5625q-6.953125 1.875 -15.625 1.875q-8.6875 0 -15.6875 -1.875q-7.0 -1.890625 -11.921875 -5.5625q-4.921875 -3.671875 -7.59375 -9.140625q-2.65625 -5.46875 -2.65625 -12.609375q0 -7.140625 2.65625 -12.609375q2.671875 -5.46875 7.59375 -9.140625q4.921875 -3.671875 11.921875 -5.546875q7.0 -1.875 15.6875 -1.875q8.671875 0 15.625 1.875q6.96875 1.875 11.84375 5.546875q4.890625 3.671875 7.515625 9.140625q2.625 5.46875 2.625 12.609375zm-15.140625 0q0 -3.109375 -0.984375 -6.1875q-0.984375 -3.09375 -3.515625 -5.546875q-2.515625 -2.46875 -6.875 -4.0q-4.359375 -1.53125 -11.09375 -1.53125q-4.53125 0 -7.96875 0.703125q-3.421875 0.703125 -5.921875 1.953125q-2.5 1.25 -4.203125 2.921875q-1.6875 1.671875 -2.703125 3.59375q-1.0 1.921875 -1.421875 4.0q-0.421875 2.078125 -0.421875 4.09375q0 2.0625 0.421875 4.15625q0.421875 2.09375 1.421875 4.015625q1.015625 1.921875 2.703125 3.578125q1.703125 1.65625 4.203125 2.890625q2.5 1.21875 5.921875 1.9375q3.4375 0.703125 7.96875 0.703125q6.734375 0 11.09375 -1.53125q4.359375 -1.546875 6.875 -4.0q2.53125 -2.46875 3.515625 -5.546875q0.984375 -3.09375 0.984375 -6.203125zm82.66632 -27.765625l14.15625 38.5l15.34375 -38.5l15.53125 0l-22.28125 55.453125l-16.625 0l-14.484375 -37.296875l-14.453125 37.296875l-16.625 0l-22.3125 -55.453125l15.578125 0l15.015625 37.6875l14.484375 -37.6875l16.671875 0zm54.55533 55.453125l0 -55.453125l56.140625 0l0 11.828125l-40.765625 0l0 9.15625l38.671875 0l0 11.828125l-38.671875 0l0 10.8125l41.328125 0l0 11.828125l-56.703125 0zm86.13815 0l-14.984375 0l0 -55.453125l37.546875 0q6.046875 0 10.265625 1.25q4.21875 1.25 6.859375 3.5625q2.640625 2.296875 3.828125 5.546875q1.203125 3.234375 1.203125 7.234375q0 3.515625 -1.0 6.140625q-0.984375 2.625 -2.65625 4.5q-1.671875 1.875 -3.890625 3.171875q-2.21875 1.28125 -4.6875 2.125l18.15625 21.921875l-17.515625 0l-16.78125 -20.421875l-16.34375 0l0 20.421875zm29.578125 -37.9375q0 -1.609375 -0.421875 -2.734375q-0.421875 -1.140625 -1.484375 -1.84375q-1.046875 -0.703125 -2.796875 -1.03125q-1.75 -0.328125 -4.375 -0.328125l-20.5 0l0 11.875l20.5 0q2.625 0 4.375 -0.328125q1.75 -0.328125 2.796875 -1.03125q1.0625 -0.703125 1.484375 -1.828125q0.421875 -1.140625 0.421875 -2.75z" fill-rule="nonzero"/><path fill="#4a86e8" d="m435.3229 55.783737l0 0c0 -15.7422905 13.290436 -28.503937 29.685059 -28.503937l0 0c7.8729553 0 15.423462 3.003086 20.990479 8.34861c5.5670166 5.345524 8.69455 12.595615 8.69455 20.155327l0 0c0 15.742294 -13.290436 28.503937 -29.685028 28.503937l0 0c-16.394623 0 -29.685059 -12.761642 -29.685059 -28.503937z" fill-rule="evenodd"/><path stroke="#4a86e8" stroke-width="3.0" stroke-linejoin="round" stroke-linecap="butt" d="m435.3229 55.783737l0 0c0 -15.7422905 13.290436 -28.503937 29.685059 -28.503937l0 0c7.8729553 0 15.423462 3.003086 20.990479 8.34861c5.5670166 5.345524 8.69455 12.595615 8.69455 20.155327l0 0c0 15.742294 -13.290436 28.503937 -29.685028 28.503937l0 0c-16.394623 0 -29.685059 -12.761642 -29.685059 -28.503937z" fill-rule="evenodd"/><path fill="#ffffff" d="m475.30035 107.62587l-3.1119995 -40.665154l35.135376 20.70855z" fill-rule="evenodd"/><path fill="#ffffff" d="m487.10825 99.81105l8.019226 -4.9974823l17.674408 28.361282l-8.019196 4.9974823z" fill-rule="evenodd"/><path fill="#ffffff" d="m477.89273 103.91569l-3.6544495 -33.68078l28.626312 18.118622z" fill-rule="evenodd"/><path fill="#ffffff" d="m487.0874 97.8006l6.2533875 -3.8970337l14.917206 23.93692l-6.2533875 3.8970337z" fill-rule="evenodd"/></g></svg>