<svg version="1.1" viewBox="0.0 0.0 100.0 100.0" fill="none" stroke="none" stroke-linecap="square" stroke-miterlimit="10" xmlns:xlink="http://www.w3.org/1999/xlink" xmlns="http://www.w3.org/2000/svg"><clipPath id="p.0"><path d="m0 0l100.0 0l0 100.0l-100.0 0l0 -100.0z" clip-rule="nonzero"/></clipPath><g clip-path="url(#p.0)"><path fill="#000000" fill-opacity="0.0" d="m0 0l100.0 0l0 100.0l-100.0 0z" fill-rule="evenodd"/><path fill="#825ca8" d="m0 0l100.0 0l0 100.0l-100.0 0z" fill-rule="evenodd"/><path fill="#000000" fill-opacity="0.0" d="m4.3149605 29.52756l91.37009 0l0 40.944885l-91.37009 0z" fill-rule="evenodd"/><path fill="#ffffff" d="m46.732803 28.143122l0 1.984375q0 1.015625 -0.359375 1.375q-0.34375 0.34375 -1.359375 0.34375l-7.6875 0l0 39.359375q0 1.03125 -0.359375 1.390625q-0.34375 0.34375 -1.359375 0.34375l-3.40625 0l0 -41.09375l-9.28125 0l0 -1.984375q0 -1.015625 0.359375 -1.359375q0.359375 -0.359375 1.375 -0.359375l22.078125 0zm15.429825 44.796875q-1.03125 0 -1.328125 -0.34375q-0.28125 -0.359375 -0.28125 -1.390625l0 -1.984375l5.578125 0q1.984375 0 2.4843826 -0.828125q0.515625 -0.828125 0.515625 -2.8125l0 -30.078125q0 -1.984375 -0.515625 -2.8125q-0.5000076 -0.8437481 -2.4843826 -0.8437481l-8.125 0l0 41.09375l-5.125 0l0 -43.078125q0 -1.015625 0.34375 -1.359375q0.359375 -0.359375 1.390625 -0.359375l13.5625 0q3.3281326 0 4.7031326 1.375q1.375 1.375 1.375 4.703123l0 32.640625q0 3.328125 -1.375 4.703125q-1.375 1.375 -4.7031326 1.375l-6.015625 0z" fill-rule="nonzero"/></g></svg>