<?xml version="1.0" encoding="utf-8"?>
<svg  class="bd-placeholder-img img-fluid rounded-start" xmlns="http://www.w3.org/2000/svg" role="img" preserveAspectRatio="xMidYMid slice" width="100%"  height="160" viewBox="0 0 786.43 249.43">
<style type="text/css">
	.st0{fill:#00040A;}
</style>
<g>
	<g>
		<path class="st0" d="M346.79,156.92v81.7h-16.88v-81.7h-20.58v-16.88h58.04v16.88H346.79z"/>
		<path class="st0" d="M420.27,238.63v-48.55h-23.29v48.55H380.1v-98.58h16.88v38.45h23.29v-38.45h16.88v98.58H420.27z"/>
		<path class="st0" d="M490.77,238.63l-14.42-37.71h-7.27v37.71H452.2v-98.58h29.95c16.64,0,27.11,12.81,27.11,27.6v6.16
			c0,10.11-5.79,20.09-15.53,23.66l15.53,41.16H490.77z M492.38,168.26c0-7.02-4.31-11.34-10.23-11.34h-13.06v32.41h13.06
			c5.92,0,10.23-4.43,10.23-11.46V168.26z"/>
		<path class="st0" d="M523.89,238.63v-98.58h52v16.88h-35.12v21.57h26.37v11.59h-26.37v31.67h35.12v16.88H523.89z"/>
		<path class="st0" d="M631.86,238.63l-5.18-29.33h-17l-5.3,29.33h-17.62l18.98-98.58h24.77l18.98,98.58H631.86z M618.18,159.27
			l-6.78,38.32h13.56L618.18,159.27z"/>
		<path class="st0" d="M688.7,238.63h-28.34v-98.58h28.47c15.89,0,28.59,12.81,28.59,28.71v41.16
			C717.41,225.81,704.59,238.63,688.7,238.63z M700.53,168.76c0-6.29-5.05-11.83-11.34-11.83h-11.95v64.82h11.95
			c6.29,0,11.34-5.18,11.34-11.58V168.76z"/>
		<path class="st0" d="M757.96,240.23c-15.9,0-28.71-12.57-28.71-28.46c0-1.73,0.37-4.56,0.74-6.41h17
			c-0.25,0.99-0.74,4.68-0.74,5.67c0,7.03,5.42,12.08,11.71,12.08c5.91,0,11.46-4.8,11.46-11.46c0-9.61-10.23-13.18-15.28-14.91
			c-7.52-2.71-24.89-10.23-24.89-30.19c0-13.8,11.95-28.1,28.47-28.1c15.77,0,28.71,12.7,28.71,28.59c0,1.85-0.37,4.31-0.74,6.29
			h-16.76c0.25-1.11,0.49-4.68,0.49-5.67c0-7.02-5.55-12.08-11.83-12.08c-5.91,0-11.34,4.93-11.34,11.46
			c0,9.24,9.36,12.82,15.16,15.04c10.72,4.19,25.02,10.35,25.02,30.19C786.43,226.18,774.35,240.23,757.96,240.23z"/>
	</g>
	<g>
		<path class="st0" d="M341.97,109.41h-30.19V10.83h30.19c16.52,0,27.11,11.95,27.11,26.74c0,13.31-5.05,20.46-12.57,22.68
			c7.52,2.34,12.57,9.24,12.57,22.55C369.09,97.58,358.49,109.41,341.97,109.41z M351.96,39.05c0-6.16-4.56-11.34-10.23-11.34
			h-13.06v26.74h12.7c5.67,0,10.6-5.05,10.6-11.21V39.05z M351.96,77.37c0-6.16-4.93-11.34-10.6-11.34h-12.7v26.5h13.06
			c5.67,0,10.23-5.18,10.23-11.34V77.37z"/>
		<path class="st0" d="M408.77,110.52c-15.77,0-28.59-12.82-28.59-28.59V37.81c0-15.77,12.82-28.59,28.59-28.59
			s28.47,12.82,28.47,28.59v44.12C437.24,97.7,424.55,110.52,408.77,110.52z M420.36,38.06c0-6.41-5.18-11.58-11.59-11.58
			c-6.41,0-11.71,5.18-11.71,11.58v44.12c0,6.41,5.3,11.59,11.71,11.59c6.41,0,11.59-5.18,11.59-11.59V38.06z"/>
		<path class="st0" d="M452.16,109.41V10.83h16.88v81.7h36.6v16.88H452.16z"/>
		<path class="st0" d="M535.59,27.71v81.7h-16.88v-81.7h-20.58V10.83h58.04v16.88H535.59z"/>
	</g>
	<g>
		<path class="st0" d="M238.6,134.53c-12.11-24.33-29.8-48.21-52.64-71.06c-22.85-22.86-46.7-40.55-70.97-52.66h46.48
			c42.53,0,77.13,34.61,77.13,77.16V134.53z M10.81,114.91c12.12,24.33,29.8,48.21,52.64,71.05c22.86,22.86,46.71,40.56,70.97,52.66
			H87.94c-42.53,0-77.13-34.61-77.13-77.16V114.91z M63.45,63.47C47.18,79.75,33.4,96.72,22.46,113.95
			c-4.66-8.89-8.57-17.93-11.64-26.9c0.49-41.69,34.66-75.82,76.34-76.23c8.94,3.06,17.96,6.97,26.84,11.63
			C96.69,33.42,79.7,47.21,63.45,63.47 M124.76,28.5c18.18,10.91,36.19,25.24,53.55,42.61c17.36,17.36,31.69,35.4,42.6,53.61
			c-10.97,18.27-25.29,36.3-42.57,53.59c-17.28,17.29-35.34,31.62-53.68,42.62c-18.18-10.91-36.19-25.25-53.56-42.62
			c-17.36-17.36-31.68-35.39-42.59-53.6l0.42-0.69c10.91-18.04,25.1-35.84,42.17-52.91c17.26-17.27,35.31-31.6,53.64-42.59
			L124.76,28.5z M162.25,238.62c-8.94-3.06-17.95-6.97-26.82-11.63c17.3-10.97,34.3-24.77,50.56-41.04
			c16.26-16.26,30.03-33.22,40.98-50.46c4.67,8.91,8.58,17.96,11.66,26.95C238.09,204.12,203.9,238.22,162.25,238.62 M249.41,87.96
			c0-48.5-39.45-87.96-87.94-87.96H88.04C39.47,0,0.03,39.44,0,87.91v73.56c0,48.51,39.45,87.97,87.94,87.97h73.56
			c48.49,0,87.94-39.46,87.94-87.97L249.41,87.96z"/>
	</g>
</g>
</svg>
