<svg width="100%" height="160" version="1.1" viewBox="0.0 0.0 1456.0 100.0" fill="none" stroke="none" stroke-linecap="square" stroke-miterlimit="10" xmlns:xlink="http://www.w3.org/1999/xlink" xmlns="http://www.w3.org/2000/svg"><clipPath id="p.0"><path d="m0 0l1456.0 0l0 100.0l-1456.0 0l0 -100.0z" clip-rule="nonzero"/></clipPath><g clip-path="url(#p.0)"><path fill="#000000" fill-opacity="0.0" d="m0 0l1456.0 0l0 100.0l-1456.0 0z" fill-rule="evenodd"/><path fill="#000000" fill-opacity="0.0" d="m-6.593176 0l1494.5826 0l0 100.0l-1494.5826 0z" fill-rule="evenodd"/><path fill="#134f5c" d="m11.078699 82.35999l0 -55.453125l56.140625 0l0 11.828125l-40.765625 0l0 9.15625l38.671875 0l0 11.828125l-38.671875 0l0 10.8125l41.328125 0l0 11.828125l-56.703125 0zm123.99755 0l0 -31.078125q0 -3.109375 -0.53125 -5.625q-0.53125 -2.53125 -1.96875 -4.328125q-1.421875 -1.796875 -3.984375 -2.78125q-2.5625076 -0.984375 -6.5937576 -0.984375q-3.078125 0 -6.453125 0.828125q-3.359375 0.828125 -6.671875 2.203125q-3.3125 1.359375 -6.328125 3.1875q-3.0 1.8125 -5.328125 3.78125l0 34.796875l-14.984375 0l0 -55.453125l14.984375 0l0 7.59375q2.8125 -1.625 6.0 -3.21875q3.203125 -1.59375 6.78125 -2.875q3.59375 -1.296875 7.625 -2.09375q4.046875 -0.8125 8.53125 -0.8125q5.6093826 0 10.015633 1.359375q4.421875 1.34375 7.484375 3.828125q3.078125 2.46875 4.703125 6.0q1.640625 3.53125 1.640625 7.890625l0 37.78125l-14.921875 0zm93.87602 -2.75q-6.828125 2.265625 -13.625 3.25q-6.796875 1.0 -13.90625 1.0q-9.078125 0 -16.171875 -1.953125q-7.078125 -1.96875 -11.921875 -5.671875q-4.84375 -3.71875 -7.390625 -9.078125q-2.53125 -5.375 -2.53125 -12.15625q0 -6.296875 2.5625 -11.6875q2.5625 -5.390625 7.265625 -9.359375q4.703125 -3.984375 11.359375 -6.21875q6.65625 -2.234375 14.84375 -2.234375q7.546875 0 13.828125 2.03125q6.28125 2.03125 10.78125 6.03125q4.5 4.0 6.96875 9.859375q2.484375 5.84375 2.484375 13.46875l0 3.71875l-54.640625 0q0.71875 2.625 2.390625 4.8125q1.6875 2.171875 4.546875 3.703125q2.875 1.53125 7.046875 2.375q4.171875 0.84375 9.984375 0.84375q4.125 0 8.078125 -0.5q3.953125 -0.5 7.375 -1.328125q3.4375 -0.828125 6.203125 -1.828125q2.765625 -1.015625 4.46875 -2.03125l0 12.953125zm-10.34375 -29.984375q-0.203125 -2.0625 -1.234375 -4.25q-1.015625 -2.203125 -3.25 -3.96875q-2.21875 -1.78125 -5.8125 -2.9375q-3.578125 -1.15625 -8.953125 -1.15625q-5.046875 0 -8.71875 1.265625q-3.671875 1.25 -6.15625 3.109375q-2.484375 1.84375 -3.859375 3.984375q-1.359375 2.140625 -1.765625 3.953125l39.75 0zm79.50815 -10.171875q-0.59375 -0.203125 -1.75 -0.546875q-1.15625 -0.34375 -2.6875 -0.671875q-1.53125 -0.34375 -3.375 -0.578125q-1.828125 -0.25 -3.765625 -0.25q-4.03125 0 -7.53125 0.984375q-3.484375 0.984375 -6.515625 2.625q-3.03125 1.625 -5.640625 3.703125q-2.59375 2.078125 -4.765625 4.265625l0 33.375l-14.984375 0l0 -55.453125l14.984375 0l0 9.0q2.703125 -2.015625 5.546875 -3.890625q2.84375 -1.875 5.921875 -3.328125q3.09375 -1.453125 6.515625 -2.3125q3.4375 -0.875 7.28125 -0.875q1.453125 0 2.953125 0.140625q1.515625 0.140625 2.953125 0.34375q1.4375 0.1875 2.6875 0.4375q1.25 0.234375 2.171875 0.484375l0 12.546875l0 0zm45.202026 -13.953125q8.15625 0 15.15625 1.390625q7.0 1.390625 12.859375 3.5625l0 13.5625q-2.296875 -1.296875 -5.1875 -2.5q-2.890625 -1.203125 -6.28125 -2.125q-3.390625 -0.9375 -7.265625 -1.5q-3.875 -0.578125 -8.140625 -0.578125q-5.328125 0 -9.296875 0.78125q-3.953125 0.765625 -6.78125 2.0625q-2.8125 1.28125 -4.640625 3.0q-1.8125 1.703125 -2.859375 3.640625q-1.046875 1.9375 -1.453125 3.96875q-0.40625 2.015625 -0.40625 3.90625q0 1.65625 0.34375 3.59375q0.34375 1.9375 1.296875 3.875q0.953125 1.9375 2.640625 3.71875q1.703125 1.765625 4.421875 3.140625q2.71875 1.375 6.546875 2.203125q3.84375 0.828125 9.125 0.828125q2.671875 0 4.640625 -0.15625q1.984375 -0.171875 3.609375 -0.453125q1.640625 -0.28125 3.078125 -0.6875q1.4375 -0.40625 2.96875 -0.84375l0 -6.703125l-16.796875 0l0 -12.140625l31.765625 0l0 28.328125q-2.984375 1.0 -6.6875 1.828125q-3.6875 0.828125 -7.625 1.40625q-3.921875 0.59375 -7.890625 0.921875q-3.953125 0.328125 -7.453125 0.328125q-5.453125 0 -10.46875 -0.734375q-5.0 -0.71875 -9.34375 -2.234375q-4.328125 -1.515625 -7.90625 -3.859375q-3.5625 -2.34375 -6.09375 -5.5625q-2.515625 -3.234375 -3.90625 -7.40625q-1.390625 -4.1875 -1.390625 -9.390625q0 -5.171875 1.453125 -9.359375q1.453125 -4.203125 4.046875 -7.421875q2.609375 -3.234375 6.25 -5.578125q3.65625 -2.34375 8.03125 -3.84375q4.390625 -1.515625 9.375 -2.234375q4.984375 -0.734375 10.265625 -0.734375zm111.319214 35.546875q0 5.40625 -2.671875 9.65625q-2.65625 4.234375 -7.5625 7.15625q-4.90625 2.921875 -11.875 4.46875q-6.953125 1.53125 -15.59375 1.53125q-3.796875 0 -7.96875 -0.3125q-4.171875 -0.296875 -8.15625 -0.84375q-3.96875 -0.546875 -7.4375 -1.25q-3.46875 -0.703125 -5.859375 -1.5625l0 -13.15625q2.59375 1.09375 5.75 2.0625q3.171875 0.96875 6.875 1.71875q3.71875 0.75 7.96875 1.171875q4.265625 0.421875 9.03125 0.421875q4.484375 0 7.890625 -0.515625q3.40625 -0.53125 5.90625 -1.421875q2.515625 -0.890625 4.171875 -2.03125q1.65625 -1.15625 2.65625 -2.390625q1.015625 -1.234375 1.4375 -2.4375q0.421875 -1.21875 0.421875 -2.265625l0 -4.875q-4.125 3.015625 -9.8125 4.984375q-5.6875 1.953125 -12.953125 1.953125q-8.4375 0 -14.0625 -1.625q-5.625 -1.640625 -9.015625 -4.734375q-3.390625 -3.09375 -4.828125 -7.53125q-1.4375 -4.4375 -1.4375 -10.0l0 -12.3125l15.0625 0l0 10.8125q0 3.265625 0.859375 5.8125q0.875 2.546875 2.75 4.265625q1.875 1.703125 4.859375 2.59375q2.984375 0.890625 7.234375 0.890625q3.578125 0 6.78125 -0.890625q3.21875 -0.890625 5.921875 -2.34375q2.703125 -1.453125 4.875 -3.296875q2.1875 -1.859375 3.765625 -3.796875l0 -14.046875l15.015625 0l0 34.140625z" fill-rule="nonzero"/><path fill="#45818e" d="m503.06232 38.969368l0 43.390625l-14.96875 0l0 -43.390625l-23.53125 0l0 -12.0625l62.078125 0l0 12.0625l-23.578125 0zm84.47229 0.484375q-0.59375 -0.203125 -1.75 -0.546875q-1.15625 -0.34375 -2.6875 -0.671875q-1.53125 -0.34375 -3.375 -0.578125q-1.828125 -0.25 -3.765625 -0.25q-4.03125 0 -7.53125 0.984375q-3.484375 0.984375 -6.515625 2.625q-3.03125 1.625 -5.640625 3.703125q-2.59375 2.078125 -4.765625 4.265625l0 33.375l-14.984375 0l0 -55.453125l14.984375 0l0 9.0q2.703125 -2.015625 5.546875 -3.890625q2.84375 -1.875 5.921875 -3.328125q3.09375 -1.453125 6.515625 -2.3125q3.4375 -0.875 7.28125 -0.875q1.453125 0 2.953125 0.140625q1.515625 0.140625 2.953125 0.34375q1.4375 0.1875 2.6875 0.4375q1.25 0.234375 2.171875 0.484375l0 12.546875l0 0zm56.514526 42.90625l0 -5.453125q-2.875 1.578125 -6.171875 2.796875q-3.28125 1.203125 -6.828125 2.046875q-3.546875 0.84375 -7.328125 1.265625q-3.78125 0.4375 -7.609375 0.4375q-4.484375 0 -8.65625 -0.859375q-4.171875 -0.84375 -7.40625 -2.734375q-3.234375 -1.90625 -5.1875 -4.96875q-1.953125 -3.0625 -1.953125 -7.5q0 -5.609375 3.0625 -9.34375q3.0625 -3.734375 9.359375 -6.109375q6.296875 -2.390625 15.921875 -3.671875q9.625 -1.296875 22.796875 -2.03125l0 -1.171875q0 -1.375 -0.734375 -2.71875q-0.71875 -1.359375 -2.640625 -2.375q-1.921875 -1.03125 -5.25 -1.671875q-3.328125 -0.65625 -8.5 -0.65625q-4.078125 0 -8.046875 0.421875q-3.96875 0.421875 -7.671875 1.15625q-3.6875 0.71875 -7.0 1.6875q-3.3125 0.96875 -6.015625 2.015625l0 -13.3125q2.828125 -0.71875 6.34375 -1.40625q3.515625 -0.6875 7.296875 -1.1875q3.796875 -0.515625 7.671875 -0.8125q3.875 -0.3125 7.421875 -0.3125q6.984375 0 12.875 1.15625q5.890625 1.15625 10.140625 3.578125q4.265625 2.421875 6.671875 6.140625q2.40625 3.703125 2.40625 8.828125l0 36.765625l-14.96875 0zm0 -25.3125q-8.640625 0.328125 -14.6875 0.9375q-6.03125 0.609375 -10.03125 1.421875q-3.984375 0.796875 -6.265625 1.734375q-2.28125 0.921875 -3.40625 1.890625q-1.125 0.96875 -1.390625 1.9375q-0.265625 0.96875 -0.265625 1.765625q0 0.96875 0.515625 1.890625q0.53125 0.90625 1.84375 1.59375q1.3125 0.671875 3.484375 1.078125q2.1875 0.40625 5.5 0.40625q3.671875 0 7.171875 -0.5625q3.515625 -0.5625 6.65625 -1.546875q3.15625 -1.0 5.921875 -2.34375q2.765625 -1.359375 4.953125 -2.890625l0 -7.3125zm100.010864 -2.453125q0 5.328125 -1.171875 9.46875q-1.171875 4.125 -3.296875 7.203125q-2.109375 3.0625 -5.078125 5.203125q-2.96875 2.140625 -6.609375 3.4375q-3.625 1.28125 -7.828125 1.875q-4.1875 0.578125 -8.75 0.578125l-35.203125 0l0 -55.453125l35.125 0q4.546875 0 8.75 0.59375q4.203125 0.578125 7.84375 1.875q3.65625 1.28125 6.640625 3.40625q3.0 2.109375 5.109375 5.203125q2.125 3.09375 3.296875 7.21875q1.171875 4.109375 1.171875 9.390625zm-15.09375 0q0 -4.0 -1.03125 -6.9375q-1.03125 -2.953125 -3.3125 -4.859375q-2.28125 -1.921875 -5.953125 -2.875q-3.671875 -0.953125 -8.96875 -0.953125l-18.59375 0l0 31.328125l18.59375 0q5.296875 0 8.96875 -0.953125q3.671875 -0.953125 5.953125 -2.90625q2.28125 -1.953125 3.3125 -4.890625q1.03125 -2.953125 1.03125 -6.953125zm28.722778 27.765625l0 -55.453125l14.984375 0l0 55.453125l-14.984375 0zm85.17175 0l0 -31.078125q0 -3.109375 -0.53125 -5.625q-0.53125 -2.53125 -1.96875 -4.328125q-1.421875 -1.796875 -3.984375 -2.78125q-2.5625 -0.984375 -6.59375 -0.984375q-3.078125 0 -6.453125 0.828125q-3.359375 0.828125 -6.671875 2.203125q-3.3125 1.359375 -6.328125 3.1875q-3.0 1.8125 -5.328125 3.78125l0 34.796875l-14.984375 0l0 -55.453125l14.984375 0l0 7.59375q2.8125 -1.625 6.0 -3.21875q3.203125 -1.59375 6.78125 -2.875q3.59375 -1.296875 7.625 -2.09375q4.046875 -0.8125 8.53125 -0.8125q5.609375 0 10.015625 1.359375q4.421875 1.34375 7.484375 3.828125q3.078125 2.46875 4.703125 6.0q1.640625 3.53125 1.640625 7.890625l0 37.78125l-14.921875 0zm67.75098 -56.859375q8.15625 0 15.15625 1.390625q7.0 1.390625 12.859375 3.5625l0 13.5625q-2.296875 -1.296875 -5.1875 -2.5q-2.890625 -1.203125 -6.28125 -2.125q-3.390625 -0.9375 -7.265625 -1.5q-3.875 -0.578125 -8.140625 -0.578125q-5.328125 0 -9.296875 0.78125q-3.953125 0.765625 -6.78125 2.0625q-2.8125 1.28125 -4.640625 3.0q-1.8125 1.703125 -2.859375 3.640625q-1.046875 1.9375 -1.453125 3.96875q-0.40625 2.015625 -0.40625 3.90625q0 1.65625 0.34375 3.59375q0.34375 1.9375 1.296875 3.875q0.953125 1.9375 2.640625 3.71875q1.703125 1.765625 4.421875 3.140625q2.71875 1.375 6.546875 2.203125q3.84375 0.828125 9.125 0.828125q2.671875 0 4.640625 -0.15625q1.984375 -0.171875 3.609375 -0.453125q1.640625 -0.28125 3.078125 -0.6875q1.4375 -0.40625 2.96875 -0.84375l0 -6.703125l-16.796875 0l0 -12.140625l31.765625 0l0 28.328125q-2.984375 1.0 -6.6875 1.828125q-3.6875 0.828125 -7.625 1.40625q-3.921875 0.59375 -7.890625 0.921875q-3.953125 0.328125 -7.453125 0.328125q-5.453125 0 -10.46875 -0.734375q-5.0 -0.71875 -9.34375 -2.234375q-4.328125 -1.515625 -7.90625 -3.859375q-3.5625 -2.34375 -6.09375 -5.5625q-2.515625 -3.234375 -3.90625 -7.40625q-1.390625 -4.1875 -1.390625 -9.390625q0 -5.171875 1.453125 -9.359375q1.453125 -4.203125 4.046875 -7.421875q2.609375 -3.234375 6.25 -5.578125q3.65625 -2.34375 8.03125 -3.84375q4.390625 -1.515625 9.375 -2.234375q4.984375 -0.734375 10.265625 -0.734375z" fill-rule="nonzero"/><path fill="#76a5af" d="m1017.16534 78.56312q-2.90625 1.21875 -5.859375 2.1875q-2.9375 0.96875 -6.09375 1.671875q-3.140625 0.703125 -6.640625 1.0625q-3.484375 0.375 -7.484375 0.375q-8.46875 0 -15.59375 -1.8125q-7.125 -1.828125 -12.28125 -5.46875q-5.140625 -3.65625 -8.0 -9.125q-2.859375 -5.46875 -2.859375 -12.78125q0 -7.296875 2.859375 -12.765625q2.859375 -5.46875 8.0 -9.125q5.15625 -3.65625 12.28125 -5.46875q7.125 -1.8125 15.59375 -1.8125q4.0 0 7.484375 0.359375q3.5 0.359375 6.640625 1.0625q3.15625 0.703125 6.09375 1.671875q2.953125 0.96875 5.859375 2.1875l0 13.484375q-2.296875 -1.25 -4.84375 -2.484375q-2.546875 -1.234375 -5.609375 -2.21875q-3.0625 -1.0 -6.734375 -1.625q-3.671875 -0.625 -8.28125 -0.625q-7.0625 0 -11.734375 1.453125q-4.65625 1.453125 -7.4375 3.875q-2.78125 2.421875 -3.921875 5.5625q-1.125 3.125 -1.125 6.46875q0 2.21875 0.484375 4.390625q0.484375 2.15625 1.609375 4.078125q1.140625 1.90625 2.953125 3.53125q1.8125 1.609375 4.515625 2.78125q2.71875 1.15625 6.328125 1.828125q3.609375 0.671875 8.328125 0.671875q4.609375 0 8.28125 -0.578125q3.671875 -0.59375 6.734375 -1.5625q3.0625 -0.96875 5.609375 -2.203125q2.546875 -1.234375 4.84375 -2.53125l0 13.484375l0 0zm60.99054 3.796875l0 -5.453125q-2.875 1.578125 -6.171875 2.796875q-3.28125 1.203125 -6.828125 2.046875q-3.546875 0.84375 -7.328125 1.265625q-3.78125 0.4375 -7.609375 0.4375q-4.484375 0 -8.65625 -0.859375q-4.171875 -0.84375 -7.40625 -2.734375q-3.234375 -1.90625 -5.1875 -4.96875q-1.953125 -3.0625 -1.953125 -7.5q0 -5.609375 3.0625 -9.34375q3.0625 -3.734375 9.359375 -6.109375q6.296875 -2.390625 15.921875 -3.671875q9.625 -1.296875 22.796875 -2.03125l0 -1.171875q0 -1.375 -0.734375 -2.71875q-0.71875 -1.359375 -2.640625 -2.375q-1.921875 -1.03125 -5.25 -1.671875q-3.328125 -0.65625 -8.5 -0.65625q-4.078125 0 -8.046875 0.421875q-3.96875 0.421875 -7.671875 1.15625q-3.6875 0.71875 -7.0 1.6875q-3.3125 0.96875 -6.015625 2.015625l0 -13.3125q2.828125 -0.71875 6.34375 -1.40625q3.515625 -0.6875 7.296875 -1.1875q3.796875 -0.515625 7.671875 -0.8125q3.875 -0.3125 7.421875 -0.3125q6.984375 0 12.875 1.15625q5.890625 1.15625 10.140625 3.578125q4.265625 2.421875 6.671875 6.140625q2.40625 3.703125 2.40625 8.828125l0 36.765625l-14.96875 0zm0 -25.3125q-8.640625 0.328125 -14.6875 0.9375q-6.03125 0.609375 -10.03125 1.421875q-3.984375 0.796875 -6.265625 1.734375q-2.28125 0.921875 -3.40625 1.890625q-1.125 0.96875 -1.390625 1.9375q-0.265625 0.96875 -0.265625 1.765625q0 0.96875 0.515625 1.890625q0.53125 0.90625 1.84375 1.59375q1.3125 0.671875 3.484375 1.078125q2.1875 0.40625 5.5 0.40625q3.671875 0 7.171875 -0.5625q3.515625 -0.5625 6.65625 -1.546875q3.15625 -1.0 5.921875 -2.34375q2.765625 -1.359375 4.953125 -2.890625l0 -7.3125zm83.08911 -17.59375q-0.59375 -0.203125 -1.75 -0.546875q-1.15625 -0.34375 -2.6875 -0.671875q-1.53125 -0.34375 -3.375 -0.578125q-1.828125 -0.25 -3.765625 -0.25q-4.03125 0 -7.53125 0.984375q-3.484375 0.984375 -6.515625 2.625q-3.03125 1.625 -5.640625 3.703125q-2.59375 2.078125 -4.765625 4.265625l0 33.375l-14.984375 0l0 -55.453125l14.984375 0l0 9.0q2.703125 -2.015625 5.546875 -3.890625q2.84375 -1.875 5.921875 -3.328125q3.09375 -1.453125 6.515625 -2.3125q3.4375 -0.875 7.28125 -0.875q1.453125 0 2.953125 0.140625q1.515625 0.140625 2.953125 0.34375q1.4375 0.1875 2.6875 0.4375q1.25 0.234375 2.171875 0.484375l0 12.546875l0 0zm71.326904 40.15625q-6.828125 2.265625 -13.625 3.25q-6.796875 1.0 -13.90625 1.0q-9.078125 0 -16.171875 -1.953125q-7.078125 -1.96875 -11.921875 -5.671875q-4.84375 -3.71875 -7.390625 -9.078125q-2.53125 -5.375 -2.53125 -12.15625q0 -6.296875 2.5625 -11.6875q2.5625 -5.390625 7.265625 -9.359375q4.703125 -3.984375 11.359375 -6.21875q6.65625 -2.234375 14.84375 -2.234375q7.546875 0 13.828125 2.03125q6.28125 2.03125 10.78125 6.03125q4.5 4.0 6.96875 9.859375q2.484375 5.84375 2.484375 13.46875l0 3.71875l-54.640625 0q0.71875 2.625 2.390625 4.8125q1.6875 2.171875 4.546875 3.703125q2.875 1.53125 7.046875 2.375q4.171875 0.84375 9.984375 0.84375q4.125 0 8.078125 -0.5q3.953125 -0.5 7.375 -1.328125q3.4375 -0.828125 6.203125 -1.828125q2.765625 -1.015625 4.46875 -2.03125l0 12.953125zm-10.34375 -29.984375q-0.203125 -2.0625 -1.234375 -4.25q-1.015625 -2.203125 -3.25 -3.96875q-2.21875 -1.78125 -5.8125 -2.9375q-3.578125 -1.15625 -8.953125 -1.15625q-5.046875 0 -8.71875 1.265625q-3.671875 1.25 -6.15625 3.109375q-2.484375 1.84375 -3.859375 3.984375q-1.359375 2.140625 -1.765625 3.953125l39.75 0zm90.3363 29.984375q-6.828125 2.265625 -13.625 3.25q-6.796875 1.0 -13.90625 1.0q-9.078125 0 -16.171875 -1.953125q-7.078125 -1.96875 -11.921875 -5.671875q-4.84375 -3.71875 -7.390625 -9.078125q-2.53125 -5.375 -2.53125 -12.15625q0 -6.296875 2.5625 -11.6875q2.5625 -5.390625 7.265625 -9.359375q4.703125 -3.984375 11.359375 -6.21875q6.65625 -2.234375 14.84375 -2.234375q7.546875 0 13.828125 2.03125q6.28125 2.03125 10.78125 6.03125q4.5 4.0 6.96875 9.859375q2.484375 5.84375 2.484375 13.46875l0 3.71875l-54.640625 0q0.71875 2.625 2.390625 4.8125q1.6875 2.171875 4.546875 3.703125q2.875 1.53125 7.046875 2.375q4.171875 0.84375 9.984375 0.84375q4.125 0 8.078125 -0.5q3.953125 -0.5 7.375 -1.328125q3.4375 -0.828125 6.203125 -1.828125q2.765625 -1.015625 4.46875 -2.03125l0 12.953125zm-10.34375 -29.984375q-0.203125 -2.0625 -1.234375 -4.25q-1.015625 -2.203125 -3.25 -3.96875q-2.21875 -1.78125 -5.8125 -2.9375q-3.578125 -1.15625 -8.953125 -1.15625q-5.046875 0 -8.71875 1.265625q-3.671875 1.25 -6.15625 3.109375q-2.484375 1.84375 -3.859375 3.984375q-1.359375 2.140625 -1.765625 3.953125l39.75 0zm79.50818 -10.171875q-0.59375 -0.203125 -1.75 -0.546875q-1.15625 -0.34375 -2.6875 -0.671875q-1.53125 -0.34375 -3.375 -0.578125q-1.828125 -0.25 -3.765625 -0.25q-4.03125 0 -7.53125 0.984375q-3.484375 0.984375 -6.515625 2.625q-3.03125 1.625 -5.640625 3.703125q-2.59375 2.078125 -4.765625 4.265625l0 33.375l-14.984375 0l0 -55.453125l14.984375 0l0 9.0q2.703125 -2.015625 5.546875 -3.890625q2.84375 -1.875 5.921875 -3.328125q3.09375 -1.453125 6.515625 -2.3125q3.4375 -0.875 7.28125 -0.875q1.453125 0 2.953125 0.140625q1.515625 0.140625 2.953125 0.34375q1.4375 0.1875 2.6875 0.4375q1.25 0.234375 2.171875 0.484375l0 12.546875l0 0zm60.576904 3.078125q-1.5625 -0.78125 -4.15625 -1.734375q-2.578125 -0.96875 -5.84375 -1.84375q-3.265625 -0.875 -7.109375 -1.453125q-3.828125 -0.578125 -7.859375 -0.578125q-3.234375 0 -5.515625 0.203125q-2.28125 0.1875 -3.84375 0.515625q-1.546875 0.328125 -2.453125 0.75q-0.90625 0.421875 -1.390625 0.875q-0.484375 0.4375 -0.625 0.890625q-0.140625 0.4375 -0.140625 0.796875q0 1.203125 1.203125 2.125q1.21875 0.90625 3.3125 1.609375q2.09375 0.703125 4.875 1.328125q2.796875 0.625 5.921875 1.296875q3.125 0.65625 6.453125 1.453125q3.328125 0.78125 6.453125 1.828125q3.140625 1.046875 5.921875 2.453125q2.78125 1.390625 4.875 3.25q2.109375 1.84375 3.3125 4.265625q1.21875 2.421875 1.21875 5.53125q0 4.0 -1.421875 6.875q-1.40625 2.859375 -3.765625 4.84375q-2.359375 1.96875 -5.46875 3.15625q-3.109375 1.1875 -6.515625 1.828125q-3.40625 0.65625 -6.90625 0.859375q-3.484375 0.203125 -6.640625 0.203125q-8.234375 0 -15.234375 -1.359375q-7.0 -1.34375 -12.375 -3.375l0 -13.234375q5.53125 3.0625 12.609375 4.8125q7.09375 1.734375 15.171875 1.734375q4.75 0 7.75 -0.5q3.015625 -0.515625 4.703125 -1.296875q1.703125 -0.796875 2.3125 -1.71875q0.609375 -0.9375 0.609375 -1.78125q0 -1.328125 -1.21875 -2.3125q-1.203125 -1.0 -3.3125 -1.734375q-2.09375 -0.75 -4.875 -1.375q-2.78125 -0.625 -5.921875 -1.25q-3.125 -0.625 -6.4375 -1.34375q-3.296875 -0.734375 -6.4375 -1.71875q-3.125 -1.0 -5.90625 -2.3125q-2.78125 -1.3125 -4.890625 -3.109375q-2.09375 -1.796875 -3.3125 -4.15625q-1.203125 -2.359375 -1.203125 -5.46875q0 -3.671875 1.296875 -6.328125q1.296875 -2.671875 3.484375 -4.546875q2.203125 -1.875 5.078125 -3.046875q2.890625 -1.171875 6.078125 -1.8125q3.203125 -0.640625 6.46875 -0.875q3.265625 -0.25 6.21875 -0.25q3.21875 0 6.625 0.328125q3.421875 0.3125 6.71875 0.90625q3.3125 0.578125 6.40625 1.34375q3.09375 0.765625 5.703125 1.609375l0 12.84375z" fill-rule="nonzero"/></g></svg>