<?xml version="1.0" encoding="utf-8"?>
<svg image-rendering="auto" baseProfile="basic" version="1.1" preserveAspectRatio="xMidYMid meet" viewBox="0 0 394.67 96.81" xmlns="http://www.w3.org/2000/svg" xmlns:xlink="http://www.w3.org/1999/xlink">
  <polyline points="20.92 0.89 39.39 0.89 46.27 50.95 53.27 0.89 70.47 0.89 70.47 95.66 56.97 95.66 56.97 34.39 48.3 95.66 42.57 95.66 33.78 34.39 33.78 95.66 20.92 95.66 20.92 0.89"/>
  <path d="M91.5,46.1h3.69c4.32,0,5-3.07,5-6.89v-19c0-3.69-.77-6.49-5-6.49H91.5V46.1m0,13.62V95.66H77.1V.9H99.9c10.19,0,14.77,4.33,14.77,15.66V42.39c0,11.22-5,17.33-14.77,17.33Z"/>
  <path d="M143.34,21c0-5-1.66-7.26-5-7.26-3.7,0-5.09,2.42-5.09,7.26V75.55c0,4.07,1.14,7.24,5.21,7.24,3.83,0,4.85-3.17,4.85-7.24V21M158,74.51c0,13.25-4.46,22.3-18.33,22.3h-2.43c-13.76,0-18.6-9-18.6-22.3V21.78c0-13.11,5-21.78,18.47-21.78h2.42C153.52,0,158,8.67,158,21.66Z"/>
  <path d="M183,0c11.84,0,16.43,5.23,16.43,16.43V32H185.49V18.35c0-3.19-.63-5.61-4.07-5.61s-4.2,2.17-4.2,6.63v1.77c0,5.35,1,8.28,5.85,14.54l9.17,11.83c6.5,8.42,8.54,13.26,8.54,23.95v3.05c0,13.89-6,22.17-18.6,22.17h-2.8c-11.47,0-17.58-6.24-17.58-18v-19h14.26V76.3c0,4.34,1.41,6.63,4.72,6.63s4.71-2.29,4.71-8.16V72.61c0-6.75-.63-9.18-5.86-15.92L170.46,45c-6.11-7.9-7.89-14-7.89-23.44V18.47c0-12.6,6.37-18.47,17.7-18.47H183"/>
  <path d="M225.49,0c11.84,0,16.42,5.23,16.42,16.43V32H228V18.35c0-3.19-.64-5.61-4.08-5.61s-4.21,2.17-4.21,6.63v1.77c0,5.35,1,8.28,5.87,14.54l9.17,11.83c6.5,8.42,8.53,13.26,8.53,23.95v3.05c0,13.89-6,22.17-18.6,22.17h-2.8c-11.46,0-17.58-6.24-17.58-18v-19h14.27V76.3c0,4.34,1.4,6.63,4.71,6.63S228,80.64,228,74.77V72.61c0-6.75-.64-9.18-5.86-15.92L213,45c-6.12-7.9-7.91-14-7.91-23.44V18.47C205.1,5.87,211.48,0,222.81,0h2.68"/>
  <path d="M284.1,52.49v29.8h4.33c4.58,0,5.61-2.17,5.61-6.37V58.6c0-4-1-6.11-5.61-6.11H284.1m0-38.73V38.34h4.33c3.83,0,5-2.66,5-6.62v-12c0-3.82-1-6-5-6ZM269.71.9h22.67c12,0,15.16,6.24,15.16,15.4V30.83c0,7.89-3.44,11.72-7.14,13.12,3.82,1.27,8.28,4.45,8.28,13.88V78.34c0,10.06-4.46,17.32-15.29,17.32H269.71Z"/>
  <polyline points="328.9 0.9 328.9 81.02 340.27 81.02 340.27 95.66 314.51 95.66 314.51 0.9 328.9 0.9"/>
  <polyline points="375.72 0.9 375.72 14.65 359.34 14.65 359.34 39.49 372.1 39.49 372.1 53.88 359.34 53.88 359.34 81.27 376.15 81.27 376.15 95.66 344.95 95.66 344.95 0.9 375.72 0.9"/>
  <rect x="248.35" y="0.9" width="14.39" height="94.76"/>
  <rect y="0.9" width="14.39" height="94.76"/>
  <polyline points="386.89 0.9 386.89 2.9 385.13 2.9 385.13 14.65 383.06 14.65 383.06 2.9 381.3 2.9 381.3 0.9 386.89 0.9"/>
  <polyline points="387.48 0.9 390.16 0.9 391.16 8.16 392.17 0.9 394.67 0.9 394.67 14.65 392.71 14.65 392.71 5.76 391.45 14.65 390.62 14.65 389.35 5.76 389.35 14.65 387.48 14.65 387.48 0.9"/>
</svg>
