<svg version="1.1" viewBox="0.0 0.0 566.501312335958 104.0" fill="none" stroke="none" stroke-linecap="square" stroke-miterlimit="10" xmlns:xlink="http://www.w3.org/1999/xlink" xmlns="http://www.w3.org/2000/svg"><clipPath id="p.0"><path d="m0 0l566.50134 0l0 104.0l-566.50134 0l0 -104.0z" clip-rule="nonzero"/></clipPath><g clip-path="url(#p.0)"><path fill="#000000" fill-opacity="0.0" d="m0 0l566.50134 0l0 104.0l-566.50134 0z" fill-rule="evenodd"/><path fill="#000000" fill-opacity="0.0" d="m0 0l568.0 0l0 107.81102l-568.0 0z" fill-rule="evenodd"/><path fill="#6d9eeb" d="m68.765625 42.531868q-1.5625 -0.78125 -4.15625 -1.734375q-2.578125 -0.96875 -5.84375 -1.84375q-3.265625 -0.875 -7.109375 -1.453125q-3.828125 -0.578125 -7.859375 -0.578125q-3.234375 0 -5.515625 0.203125q-2.28125 0.1875 -3.84375 0.515625q-1.546875 0.328125 -2.453125 0.75q-0.90625 0.421875 -1.390625 0.875q-0.484375 0.4375 -0.625 0.890625q-0.140625 0.4375 -0.140625 0.796875q0 1.203125 1.203125 2.125q1.21875 0.90625 3.3125 1.609375q2.09375 0.703125 4.875 1.328125q2.796875 0.625 5.921875 1.296875q3.125 0.65625 6.453125 1.453125q3.328125 0.78125 6.453125 1.828125q3.140625 1.046875 5.921875 2.453125q2.78125 1.390625 4.875 3.25q2.109375 1.84375 3.3125 4.265625q1.21875 2.421875 1.21875 5.53125q0 4.0 -1.421875 6.875q-1.40625 2.859375 -3.765625 4.84375q-2.359375 1.96875 -5.46875 3.15625q-3.109375 1.1875 -6.515625 1.828125q-3.40625 0.65625 -6.90625 0.859375q-3.484375 0.203125 -6.640625 0.203125q-8.234375 0 -15.234375 -1.359375q-7.0 -1.34375 -12.375 -3.375l0 -13.234375q5.53125 3.0625 12.609375 4.8125q7.09375 1.734375 15.171875 1.734375q4.75 0 7.75 -0.5q3.015625 -0.515625 4.703125 -1.296875q1.703125 -0.796875 2.3125 -1.71875q0.609375 -0.9375 0.609375 -1.78125q0 -1.328125 -1.21875 -2.3125q-1.203125 -1.0 -3.3125 -1.734375q-2.09375 -0.75 -4.875 -1.375q-2.78125 -0.625 -5.921875 -1.25q-3.125 -0.625 -6.4375 -1.34375q-3.296875 -0.734375 -6.4375 -1.71875q-3.125 -1.0 -5.90625 -2.3125q-2.78125 -1.3125 -4.890625 -3.109375q-2.09375 -1.796875 -3.3125 -4.15625q-1.203125 -2.359375 -1.203125 -5.46875q0 -3.671875 1.296875 -6.328125q1.296875 -2.671875 3.484375 -4.546875q2.203125 -1.875 5.078125 -3.046875q2.890625 -1.171875 6.078125 -1.8125q3.203125 -0.640625 6.46875 -0.875q3.265625 -0.25 6.21875 -0.25q3.21875 0 6.625 0.328125q3.421875 0.3125 6.71875 0.90625q3.3125 0.578125 6.40625 1.34375q3.09375 0.765625 5.703125 1.609375l0 12.84375zm53.565414 17.1875l0 22.640625l-14.9375 0l0 -22.640625l-26.875 -32.8125l16.78125 0l17.609375 22.3125l17.515625 -22.3125l16.78125 0l-26.875 32.8125zm89.59509 22.640625l-37.40625 -38.09375l0 38.09375l-14.984375 0l0 -55.453125l16.265625 0l37.453125 38.265625l0 -38.265625l14.890625 0l0 55.453125l-16.21875 0z" fill-rule="nonzero"/><path fill="#b7b7b7" d="m308.75122 67.06312q0 3.234375 -0.859375 5.609375q-0.84375 2.375 -2.359375 4.09375q-1.5 1.71875 -3.625 2.796875q-2.125 1.0625 -4.6875 1.6875q-2.5625 0.625 -5.46875 0.875q-2.90625 0.234375 -6.0 0.234375l-40.249985 0l0 -55.453125l39.51561 0q2.390625 0 4.78125 0.203125q2.40625 0.203125 4.578125 0.75q2.1875 0.546875 4.0625 1.515625q1.875 0.96875 3.265625 2.546875q1.390625 1.5625 2.171875 3.78125q0.796875 2.21875 0.796875 5.25q0 5.40625 -2.671875 8.578125q-2.65625 3.15625 -8.390625 4.21875q4.046875 0.28125 6.921875 1.234375q2.890625 0.9375 4.703125 2.578125q1.8125 1.625 2.65625 4.0q0.859375 2.359375 0.859375 5.5zm-18.6875 -23.734375q0 -1.046875 -0.328125 -1.984375q-0.3125 -0.953125 -1.171875 -1.671875q-0.84375 -0.734375 -2.296875 -1.171875q-1.453125 -0.453125 -3.703125 -0.453125l-22.078125 0l0 10.40625l22.078125 0q2.25 0 3.703125 -0.390625q1.453125 -0.40625 2.296875 -1.09375q0.859375 -0.6875 1.171875 -1.640625q0.328125 -0.953125 0.328125 -2.0zm3.46875 22.0q0 -1.890625 -0.65625 -3.046875q-0.640625 -1.15625 -2.015625 -1.78125q-1.359375 -0.625 -3.546875 -0.828125q-2.171875 -0.203125 -5.203125 -0.203125l-21.625 0l0 11.75l21.625 0q3.03125 0 5.203125 -0.203125q2.1875 -0.203125 3.546875 -0.84375q1.375 -0.640625 2.015625 -1.796875q0.65625 -1.15625 0.65625 -3.046875zm94.32236 -1.65625q0 4.15625 -2.0625 7.828125q-2.046875 3.671875 -6.171875 6.421875q-4.109375 2.75 -10.265625 4.34375q-6.15625 1.59375 -14.390625 1.59375q-8.234375 0 -14.4375 -1.59375q-6.1875 -1.59375 -10.3125 -4.34375q-4.109375 -2.75 -6.171875 -6.421875q-2.046875 -3.671875 -2.046875 -7.828125l0 -36.765625l14.921875 0l0 31.40625q0 2.78125 0.703125 5.265625q0.71875 2.46875 2.671875 4.328125q1.953125 1.859375 5.484375 2.953125q3.53125 1.09375 9.1875 1.09375q5.609375 0 9.109375 -1.09375q3.515625 -1.09375 5.46875 -2.953125q1.96875 -1.859375 2.65625 -4.328125q0.6875 -2.484375 0.6875 -5.265625l0 -31.40625l14.96875 0l0 36.765625l0 0zm51.742218 -3.953125l0 22.640625l-14.9375 0l0 -22.640625l-26.875 -32.8125l16.78125 0l17.609375 22.3125l17.515625 -22.3125l16.78125 0l-26.875 32.8125z" fill-rule="nonzero"/><path fill="#93c47d" d="m548.56714 54.672493q0 7.140625 -2.625 12.609375q-2.625 5.46875 -7.515625 9.140625q-4.875 3.671875 -11.84375 5.5625q-6.953125 1.875 -15.625 1.875q-8.6875 0 -15.6875 -1.875q-7.0 -1.890625 -11.921875 -5.5625q-4.921875 -3.671875 -7.59375 -9.140625q-2.65625 -5.46875 -2.65625 -12.609375q0 -7.140625 2.65625 -12.609375q2.671875 -5.46875 7.59375 -9.140625q4.921875 -3.671875 11.921875 -5.546875q7.0 -1.875 15.6875 -1.875q8.671875 0 15.625 1.875q6.96875 1.875 11.84375 5.546875q4.890625 3.671875 7.515625 9.140625q2.625 5.46875 2.625 12.609375zm-15.140625 0q0 -3.109375 -0.984375 -6.1875q-0.984375 -3.09375 -3.515625 -5.546875q-2.515625 -2.46875 -6.875 -4.0q-4.359375 -1.53125 -11.09375 -1.53125q-4.53125 0 -7.96875 0.703125q-3.421875 0.703125 -5.921875 1.953125q-2.5 1.25 -4.203125 2.921875q-1.6875 1.671875 -2.703125 3.59375q-1.0 1.921875 -1.421875 4.0q-0.421875 2.078125 -0.421875 4.09375q0 2.0625 0.421875 4.15625q0.421875 2.09375 1.421875 4.015625q1.015625 1.921875 2.703125 3.578125q1.703125 1.65625 4.203125 2.890625q2.5 1.21875 5.921875 1.9375q3.4375 0.703125 7.96875 0.703125q6.734375 0 11.09375 -1.53125q4.359375 -1.546875 6.875 -4.0q2.53125 -2.46875 3.515625 -5.546875q0.984375 -3.09375 0.984375 -6.203125z" fill-rule="nonzero"/></g></svg>